

<svg width="853" height="58" viewBox="0 0 853 58" fill="none" xmlns="http://www.w3.org/2000/svg">
    <path d="M1.09601 30.872C1.09601 25.976 2.20001 21.584 4.40801 17.696C6.61601 13.76 9.61601 10.688 13.408 8.47999C17.248 6.27199 21.496 5.16799 26.152 5.16799C31.624 5.16799 36.4 6.48799 40.48 9.12799C44.56 11.768 47.536 15.512 49.408 20.36H41.56C40.168 17.336 38.152 15.008 35.512 13.376C32.92 11.744 29.8 10.928 26.152 10.928C22.648 10.928 19.504 11.744 16.72 13.376C13.936 15.008 11.752 17.336 10.168 20.36C8.58401 23.336 7.79201 26.84 7.79201 30.872C7.79201 34.856 8.58401 38.36 10.168 41.384C11.752 44.36 13.936 46.664 16.72 48.296C19.504 49.928 22.648 50.744 26.152 50.744C29.8 50.744 32.92 49.952 35.512 48.368C38.152 46.736 40.168 44.408 41.56 41.384H49.408C47.536 46.184 44.56 49.904 40.48 52.544C36.4 55.136 31.624 56.432 26.152 56.432C21.496 56.432 17.248 55.352 13.408 53.192C9.61601 50.984 6.61601 47.936 4.40801 44.048C2.20001 40.16 1.09601 35.768 1.09601 30.872Z" stroke="black" stroke-width="2" mask="url(#path-1-outside-1)"/>
    <path d="M76.3692 56.648C72.6732 56.648 69.3132 55.808 66.2892 54.128C63.3132 52.448 60.9612 50.072 59.2332 47C57.5532 43.88 56.7132 40.28 56.7132 36.2C56.7132 32.168 57.5772 28.616 59.3052 25.544C61.0812 22.424 63.4812 20.048 66.5052 18.416C69.5292 16.736 72.9132 15.896 76.6572 15.896C80.4012 15.896 83.7852 16.736 86.8092 18.416C89.8332 20.048 92.2092 22.4 93.9372 25.472C95.7132 28.544 96.6012 32.12 96.6012 36.2C96.6012 40.28 95.6892 43.88 93.8652 47C92.0892 50.072 89.6652 52.448 86.5932 54.128C83.5212 55.808 80.1132 56.648 76.3692 56.648ZM76.3692 50.888C78.7212 50.888 80.9292 50.336 82.9932 49.232C85.0572 48.128 86.7132 46.472 87.9612 44.264C89.2572 42.056 89.9052 39.368 89.9052 36.2C89.9052 33.032 89.2812 30.344 88.0332 28.136C86.7852 25.928 85.1532 24.296 83.1372 23.24C81.1212 22.136 78.9372 21.584 76.5852 21.584C74.1852 21.584 71.9772 22.136 69.9612 23.24C67.9932 24.296 66.4092 25.928 65.2092 28.136C64.0092 30.344 63.4092 33.032 63.4092 36.2C63.4092 39.416 63.9852 42.128 65.1372 44.336C66.3372 46.544 67.9212 48.2 69.8892 49.304C71.8572 50.36 74.0172 50.888 76.3692 50.888Z" stroke="black" stroke-width="2" mask="url(#path-1-outside-1)"/>
    <path d="M119.904 49.952L132.144 16.544H139.128L123.648 56H116.016L100.536 16.544H107.592L119.904 49.952Z" stroke="black" stroke-width="2" mask="url(#path-1-outside-1)"/>
    <path d="M148.959 10.136C147.711 10.136 146.655 9.70399 145.791 8.83999C144.927 7.97599 144.495 6.91999 144.495 5.67199C144.495 4.42399 144.927 3.36799 145.791 2.50399C146.655 1.63999 147.711 1.20799 148.959 1.20799C150.159 1.20799 151.167 1.63999 151.983 2.50399C152.847 3.36799 153.279 4.42399 153.279 5.67199C153.279 6.91999 152.847 7.97599 151.983 8.83999C151.167 9.70399 150.159 10.136 148.959 10.136ZM152.127 16.544V56H145.575V16.544H152.127Z" stroke="black" stroke-width="2" mask="url(#path-1-outside-1)"/>
    <path d="M160.846 36.128C160.846 32.096 161.662 28.568 163.294 25.544C164.926 22.472 167.158 20.096 169.99 18.416C172.87 16.736 176.086 15.896 179.638 15.896C182.71 15.896 185.566 16.616 188.206 18.056C190.846 19.448 192.862 21.296 194.254 23.6V2.72H200.878V56H194.254V48.584C192.958 50.936 191.038 52.88 188.494 54.416C185.95 55.904 182.974 56.648 179.566 56.648C176.062 56.648 172.87 55.784 169.99 54.056C167.158 52.328 164.926 49.904 163.294 46.784C161.662 43.664 160.846 40.112 160.846 36.128ZM194.254 36.2C194.254 33.224 193.654 30.632 192.454 28.424C191.254 26.216 189.622 24.536 187.558 23.384C185.542 22.184 183.31 21.584 180.862 21.584C178.414 21.584 176.182 22.16 174.166 23.312C172.15 24.464 170.542 26.144 169.342 28.352C168.142 30.56 167.542 33.152 167.542 36.128C167.542 39.152 168.142 41.792 169.342 44.048C170.542 46.256 172.15 47.96 174.166 49.16C176.182 50.312 178.414 50.888 180.862 50.888C183.31 50.888 185.542 50.312 187.558 49.16C189.622 47.96 191.254 46.256 192.454 44.048C193.654 41.792 194.254 39.176 194.254 36.2Z" stroke="black" stroke-width="2" mask="url(#path-1-outside-1)"/>
    <path d="M239.31 26.84V32.384H210.582V26.84H239.31Z" stroke="black" stroke-width="2" mask="url(#path-1-outside-1)"/>
    <path d="M248.799 9.91999V3.94399H262.335V56H255.711V9.91999H248.799Z" stroke="black" stroke-width="2" mask="url(#path-1-outside-1)"/>
    <path d="M282.013 42.032C282.493 44.768 283.597 46.88 285.325 48.368C287.101 49.856 289.477 50.6 292.453 50.6C296.437 50.6 299.365 49.04 301.237 45.92C303.157 42.8 304.069 37.544 303.973 30.152C302.965 32.312 301.285 34.016 298.933 35.264C296.581 36.464 293.965 37.064 291.085 37.064C287.869 37.064 284.989 36.416 282.445 35.12C279.949 33.776 277.981 31.832 276.541 29.288C275.101 26.744 274.381 23.672 274.381 20.072C274.381 14.936 275.869 10.808 278.845 7.688C281.821 4.51999 286.045 2.93599 291.517 2.93599C298.237 2.93599 302.941 5.11999 305.629 9.488C308.365 13.856 309.733 20.36 309.733 29C309.733 35.048 309.181 40.04 308.077 43.976C307.021 47.912 305.197 50.912 302.605 52.976C300.061 55.04 296.557 56.072 292.093 56.072C287.197 56.072 283.381 54.752 280.645 52.112C277.909 49.472 276.349 46.112 275.965 42.032H282.013ZM292.165 31.52C295.381 31.52 298.021 30.536 300.085 28.568C302.149 26.552 303.181 23.84 303.181 20.432C303.181 16.832 302.173 13.928 300.157 11.72C298.141 9.512 295.309 8.408 291.661 8.408C288.301 8.408 285.613 9.46399 283.597 11.576C281.629 13.688 280.645 16.472 280.645 19.928C280.645 23.432 281.629 26.24 283.597 28.352C285.565 30.464 288.421 31.52 292.165 31.52Z" stroke="black" stroke-width="2" mask="url(#path-1-outside-1)"/>
    <path d="M370.104 5.81599V11.144H356.424V56H349.872V11.144H336.12V5.81599H370.104Z" stroke="black" stroke-width="2" mask="url(#path-1-outside-1)"/>
    <path d="M384.721 22.952C385.873 20.696 387.505 18.944 389.617 17.696C391.777 16.448 394.393 15.824 397.465 15.824V22.592H395.737C388.393 22.592 384.721 26.576 384.721 34.544V56H378.169V16.544H384.721V22.952Z" stroke="black" stroke-width="2" mask="url(#path-1-outside-1)"/>
    <path d="M402.58 36.128C402.58 32.096 403.396 28.568 405.028 25.544C406.66 22.472 408.892 20.096 411.724 18.416C414.604 16.736 417.796 15.896 421.3 15.896C424.756 15.896 427.756 16.64 430.3 18.128C432.844 19.616 434.74 21.488 435.988 23.744V16.544H442.612V56H435.988V48.656C434.692 50.96 432.748 52.88 430.156 54.416C427.612 55.904 424.636 56.648 421.228 56.648C417.724 56.648 414.556 55.784 411.724 54.056C408.892 52.328 406.66 49.904 405.028 46.784C403.396 43.664 402.58 40.112 402.58 36.128ZM435.988 36.2C435.988 33.224 435.388 30.632 434.188 28.424C432.988 26.216 431.356 24.536 429.292 23.384C427.276 22.184 425.044 21.584 422.596 21.584C420.148 21.584 417.916 22.16 415.9 23.312C413.884 24.464 412.276 26.144 411.076 28.352C409.876 30.56 409.276 33.152 409.276 36.128C409.276 39.152 409.876 41.792 411.076 44.048C412.276 46.256 413.884 47.96 415.9 49.16C417.916 50.312 420.148 50.888 422.596 50.888C425.044 50.888 427.276 50.312 429.292 49.16C431.356 47.96 432.988 46.256 434.188 44.048C435.388 41.792 435.988 39.176 435.988 36.2Z" stroke="black" stroke-width="2" mask="url(#path-1-outside-1)"/>
    <path d="M451.237 36.2C451.237 32.12 452.053 28.568 453.685 25.544C455.317 22.472 457.573 20.096 460.453 18.416C463.381 16.736 466.717 15.896 470.461 15.896C475.309 15.896 479.293 17.072 482.413 19.424C485.581 21.776 487.669 25.04 488.677 29.216H481.621C480.949 26.816 479.629 24.92 477.661 23.528C475.741 22.136 473.341 21.44 470.461 21.44C466.717 21.44 463.693 22.736 461.389 25.328C459.085 27.872 457.933 31.496 457.933 36.2C457.933 40.952 459.085 44.624 461.389 47.216C463.693 49.808 466.717 51.104 470.461 51.104C473.341 51.104 475.741 50.432 477.661 49.088C479.581 47.744 480.901 45.824 481.621 43.328H488.677C487.621 47.36 485.509 50.6 482.341 53.048C479.173 55.448 475.213 56.648 470.461 56.648C466.717 56.648 463.381 55.808 460.453 54.128C457.573 52.448 455.317 50.072 453.685 47C452.053 43.928 451.237 40.328 451.237 36.2Z" stroke="black" stroke-width="2" mask="url(#path-1-outside-1)"/>
    <path d="M519.451 56L503.971 38.576V56H497.419V2.72H503.971V34.04L519.163 16.544H528.307L509.731 36.2L528.379 56H519.451Z" stroke="black" stroke-width="2" mask="url(#path-1-outside-1)"/>
    <path d="M570.474 34.76C570.474 36.008 570.402 37.328 570.258 38.72H538.722C538.962 42.608 540.282 45.656 542.682 47.864C545.13 50.024 548.082 51.104 551.538 51.104C554.37 51.104 556.722 50.456 558.594 49.16C560.514 47.816 561.858 46.04 562.626 43.832H569.682C568.626 47.624 566.514 50.72 563.346 53.12C560.178 55.472 556.242 56.648 551.538 56.648C547.794 56.648 544.434 55.808 541.458 54.128C538.53 52.448 536.226 50.072 534.546 47C532.866 43.88 532.026 40.28 532.026 36.2C532.026 32.12 532.842 28.544 534.474 25.472C536.106 22.4 538.386 20.048 541.314 18.416C544.29 16.736 547.698 15.896 551.538 15.896C555.282 15.896 558.594 16.712 561.474 18.344C564.354 19.976 566.562 22.232 568.098 25.112C569.682 27.944 570.474 31.16 570.474 34.76ZM563.706 33.392C563.706 30.896 563.154 28.76 562.05 26.984C560.946 25.16 559.434 23.792 557.514 22.88C555.642 21.92 553.554 21.44 551.25 21.44C547.938 21.44 545.106 22.496 542.754 24.608C540.45 26.72 539.13 29.648 538.794 33.392H563.706Z" stroke="black" stroke-width="2" mask="url(#path-1-outside-1)"/>
    <path d="M585.674 22.952C586.826 20.696 588.458 18.944 590.57 17.696C592.73 16.448 595.346 15.824 598.418 15.824V22.592H596.69C589.346 22.592 585.674 26.576 585.674 34.544V56H579.122V16.544H585.674V22.952Z" stroke="black" stroke-width="2" mask="url(#path-1-outside-1)"/>
    <path d="M652.537 26.84V32.384H623.809V26.84H652.537Z" stroke="black" stroke-width="2" mask="url(#path-1-outside-1)"/>
    <path d="M690.58 5.81599V56H684.028V5.81599H690.58Z" stroke="black" stroke-width="2" mask="url(#path-1-outside-1)"/>
    <path d="M720.971 15.824C725.771 15.824 729.659 17.288 732.635 20.216C735.611 23.096 737.099 27.272 737.099 32.744V56H730.619V33.68C730.619 29.744 729.635 26.744 727.667 24.68C725.699 22.568 723.011 21.512 719.603 21.512C716.147 21.512 713.387 22.592 711.323 24.752C709.307 26.912 708.299 30.056 708.299 34.184V56H701.747V16.544H708.299V22.16C709.595 20.144 711.347 18.584 713.555 17.48C715.811 16.376 718.283 15.824 720.971 15.824Z" stroke="black" stroke-width="2" mask="url(#path-1-outside-1)"/>
    <path d="M745.354 36.128C745.354 32.096 746.17 28.568 747.802 25.544C749.434 22.472 751.666 20.096 754.498 18.416C757.378 16.736 760.594 15.896 764.146 15.896C767.218 15.896 770.074 16.616 772.714 18.056C775.354 19.448 777.37 21.296 778.762 23.6V2.72H785.386V56H778.762V48.584C777.466 50.936 775.546 52.88 773.002 54.416C770.458 55.904 767.482 56.648 764.074 56.648C760.57 56.648 757.378 55.784 754.498 54.056C751.666 52.328 749.434 49.904 747.802 46.784C746.17 43.664 745.354 40.112 745.354 36.128ZM778.762 36.2C778.762 33.224 778.162 30.632 776.962 28.424C775.762 26.216 774.13 24.536 772.066 23.384C770.05 22.184 767.818 21.584 765.37 21.584C762.922 21.584 760.69 22.16 758.674 23.312C756.658 24.464 755.05 26.144 753.85 28.352C752.65 30.56 752.05 33.152 752.05 36.128C752.05 39.152 752.65 41.792 753.85 44.048C755.05 46.256 756.658 47.96 758.674 49.16C760.69 50.312 762.922 50.888 765.37 50.888C767.818 50.888 770.05 50.312 772.066 49.16C774.13 47.96 775.762 46.256 776.962 44.048C778.162 41.792 778.762 39.176 778.762 36.2Z" stroke="black" stroke-width="2" mask="url(#path-1-outside-1)"/>
    <path d="M799.842 10.136C798.594 10.136 797.538 9.70399 796.674 8.83999C795.81 7.97599 795.378 6.91999 795.378 5.67199C795.378 4.42399 795.81 3.36799 796.674 2.50399C797.538 1.63999 798.594 1.20799 799.842 1.20799C801.042 1.20799 802.05 1.63999 802.866 2.50399C803.73 3.36799 804.162 4.42399 804.162 5.67199C804.162 6.91999 803.73 7.97599 802.866 8.83999C802.05 9.70399 801.042 10.136 799.842 10.136ZM803.01 16.544V56H796.458V16.544H803.01Z" stroke="black" stroke-width="2" mask="url(#path-1-outside-1)"/>
    <path d="M811.729 36.128C811.729 32.096 812.545 28.568 814.177 25.544C815.809 22.472 818.041 20.096 820.873 18.416C823.753 16.736 826.945 15.896 830.449 15.896C833.905 15.896 836.905 16.64 839.449 18.128C841.993 19.616 843.889 21.488 845.137 23.744V16.544H851.761V56H845.137V48.656C843.841 50.96 841.897 52.88 839.305 54.416C836.761 55.904 833.785 56.648 830.377 56.648C826.873 56.648 823.705 55.784 820.873 54.056C818.041 52.328 815.809 49.904 814.177 46.784C812.545 43.664 811.729 40.112 811.729 36.128ZM845.137 36.2C845.137 33.224 844.537 30.632 843.337 28.424C842.137 26.216 840.505 24.536 838.441 23.384C836.425 22.184 834.193 21.584 831.745 21.584C829.297 21.584 827.065 22.16 825.049 23.312C823.033 24.464 821.425 26.144 820.225 28.352C819.025 30.56 818.425 33.152 818.425 36.128C818.425 39.152 819.025 41.792 820.225 44.048C821.425 46.256 823.033 47.96 825.049 49.16C827.065 50.312 829.297 50.888 831.745 50.888C834.193 50.888 836.425 50.312 838.441 49.16C840.505 47.96 842.137 46.256 843.337 44.048C844.537 41.792 845.137 39.176 845.137 36.2Z" stroke="black" stroke-width="2" mask="url(#path-1-outside-1)"/>
</svg>
